# xmcd CD database file
#
# Track frame offsets:
#	150
#	17413
#	34977
#	61512
#	83906
#	105220
#	115489
#	130922
#	147537
#	166449
#	181831
#	194549
#	213340
#	227206
#
# Disc length: 3267 seconds
#
# Revision: 0
# Processed by: cddbd v1.5.2PL0 Copyright (c) Steve Scherf et al.
# Submitted via: CDex 1.70beta2
#
DISCID=bc0cc10e
DTITLE=Yuhki Kuramoto - ROMANCING STRINGS - ANTHOLOGY
DYEAR=2011
DGENRE=New Age
TTITLE0=Shape of Love
TTITLE1=Timeless Love
TTITLE2=Heartstrings
TTITLE3=Second Romance
TTITLE4=In a Beautiful Season
TTITLE5=Flying Merry-Go-Round
TTITLE6=Forest
TTITLE7=In an Old Castle
TTITLE8=Noble Mind
TTITLE9=Sonnet of Fountain
TTITLE10=Promenade
TTITLE11=Paris, Winter
TTITLE12=Soaring
TTITLE13=Virgin Road
EXTD=YEAR: 2011
EXTT0=
EXTT1=
EXTT2=
EXTT3=
EXTT4=
EXTT5=
EXTT6=
EXTT7=
EXTT8=
EXTT9=
EXTT10=
EXTT11=
EXTT12=
EXTT13=
PLAYORDER=
